<?xml version="1.0" standalone="no"?>
<!DOCTYPE svg PUBLIC "-//W3C//DTD SVG 20010904//EN"
 "http://www.w3.org/TR/2001/REC-SVG-20010904/DTD/svg10.dtd">
<svg version="1.0" xmlns="http://www.w3.org/2000/svg"
 width="600.000000pt" height="600.000000pt" viewBox="0 0 600.000000 600.000000"
 preserveAspectRatio="xMidYMid meet">

<g transform="translate(0.000000,600.000000) scale(0.100000,-0.100000)"
fill="#000000" stroke="none">
<path d="M0 5520 c0 -280 4 -480 9 -480 5 0 7 -10 3 -22 -5 -21 -4 -22 12 -9
15 13 19 13 27 0 16 -25 11 -42 -11 -36 -11 3 -20 2 -20 -3 0 -11 36 -19 50
-10 7 4 10 23 8 45 -3 40 16 61 28 31 3 -9 12 -16 19 -16 7 0 15 -9 18 -20 3
-11 11 -19 19 -18 8 2 14 -8 16 -25 2 -19 11 -31 28 -37 13 -5 24 -16 24 -24
0 -7 9 -16 20 -19 13 -3 20 0 20 9 0 19 22 18 42 -3 55 -60 162 -133 185 -127
13 4 22 -4 31 -24 10 -24 21 -31 53 -36 37 -6 41 -9 36 -31 -3 -20 -2 -23 9
-14 11 9 14 8 14 0 0 -7 4 -10 10 -6 11 7 50 -25 50 -41 0 -7 6 -15 13 -18 10
-5 10 -7 -1 -12 -18 -8 -15 -25 4 -22 10 2 24 -10 35 -29 10 -18 14 -33 9 -33
-5 0 -7 -7 -5 -15 3 -8 7 -22 10 -30 4 -13 8 -13 25 -3 24 15 25 27 4 43 -13
9 -14 16 -6 31 10 16 11 16 12 3 0 -9 7 -19 15 -23 8 -3 14 -15 12 -28 -1 -17
3 -23 16 -22 9 1 24 -10 33 -25 9 -15 29 -33 45 -40 16 -7 29 -17 29 -23 0 -5
7 -17 16 -26 15 -14 18 -14 35 9 14 18 19 20 19 8 0 -9 10 -21 23 -27 12 -6
16 -11 10 -11 -18 -1 -16 -21 1 -21 8 0 16 -6 19 -12 3 -10 9 -10 26 0 29 17
41 15 41 -8 0 -12 5 -17 14 -14 8 3 17 1 21 -5 3 -6 15 -11 27 -11 18 0 19 2
7 16 -12 14 -11 16 6 12 11 -2 19 -10 17 -16 -3 -16 25 -15 31 1 3 9 8 8 22
-3 14 -11 19 -12 22 -2 3 6 9 12 15 12 8 0 6 -17 -9 -57 -4 -9 6 -13 31 -13
25 0 36 4 36 15 0 8 5 15 10 15 6 0 10 -4 10 -9 0 -5 14 -16 30 -25 28 -13 30
-13 30 4 0 13 5 17 20 13 12 -3 20 -13 18 -22 -3 -27 12 -61 29 -61 9 0 13 6
9 15 -21 53 -21 51 -3 33 9 -9 17 -22 17 -29 0 -9 4 -8 15 1 8 7 15 18 15 25
0 7 7 12 15 11 18 -3 32 -16 17 -16 -6 0 -9 -7 -5 -16 6 -16 7 -15 19 0 6 9 9
26 6 38 -4 17 -2 20 11 15 10 -4 22 1 30 14 13 17 15 18 21 4 3 -9 6 -26 6
-36 0 -15 6 -19 23 -17 17 2 23 -3 25 -20 5 -36 33 -23 49 22 15 44 9 64 -6
22 -13 -31 -26 -35 -18 -4 3 11 0 36 -8 55 -14 33 -11 63 6 63 5 0 9 -7 9 -16
0 -11 5 -14 16 -10 19 7 42 -14 37 -34 -4 -12 -3 -13 5 -1 14 19 61 -16 62
-46 0 -14 6 -23 15 -23 8 0 15 -4 15 -8 0 -5 -15 -7 -32 -5 -18 2 -27 0 -20
-3 17 -8 15 -41 -3 -47 -20 -8 -31 13 -14 25 11 8 10 9 -3 4 -13 -4 -18 0 -18
12 0 11 -5 7 -15 -12 -20 -38 -19 -66 6 -96 l20 -25 -7 25 c-4 14 -9 31 -12
39 -4 11 -1 11 16 2 15 -8 22 -23 24 -53 2 -25 9 -43 17 -46 10 -3 12 0 8 12
-8 21 9 21 23 -1 8 -14 10 -14 9 -3 -5 49 1 59 31 58 21 -1 29 -5 26 -14 -3
-7 -1 -16 4 -19 11 -7 22 28 15 48 -4 9 2 21 15 30 13 9 19 20 15 27 -4 6 -4
22 -1 35 5 19 12 24 29 21 12 -3 26 -5 31 -5 6 -1 -1 -11 -13 -22 -20 -19 -21
-23 -8 -30 8 -5 17 -20 21 -33 3 -13 15 -26 26 -29 12 -3 20 -14 20 -25 0 -11
7 -22 15 -26 9 -3 15 -18 15 -38 0 -26 -3 -30 -11 -18 -8 11 -9 5 -4 -25 3
-24 16 -49 30 -61 13 -12 21 -25 17 -29 -4 -4 5 -5 19 -2 14 4 40 2 57 -3 23
-6 32 -5 33 3 1 7 5 -1 9 -18 l8 -30 1 37 1 37 33 -17 c17 -9 33 -20 35 -24 2
-4 10 -4 19 -1 12 5 14 1 8 -15 -5 -16 -2 -22 9 -22 9 0 16 -4 16 -10 0 -5 6
-10 14 -10 7 0 19 -13 26 -29 11 -27 15 -29 46 -24 21 3 45 0 60 -8 21 -11 27
-11 33 0 14 23 18 -8 16 -124 -2 -73 1 -112 9 -117 8 -5 7 -16 -3 -40 -7 -18
-13 -45 -12 -60 1 -16 -4 -28 -10 -28 -7 0 -10 13 -7 35 3 30 1 34 -13 30 -10
-3 -21 0 -26 8 -4 7 -19 13 -33 12 -21 0 -26 5 -28 33 -2 17 -8 32 -13 32 -11
0 -15 -10 -24 -63 -3 -21 -10 -35 -15 -32 -12 8 -4 143 10 161 7 8 11 17 8 19
-11 11 -77 15 -83 5 -10 -16 5 -71 17 -64 6 4 8 1 5 -7 -25 -63 -30 -91 -19
-127 6 -20 10 -67 9 -105 -1 -37 2 -67 7 -67 5 0 1 -9 -8 -19 -13 -14 -15 -24
-8 -38 10 -18 9 -74 -3 -233 -5 -57 -2 -80 8 -95 11 -13 12 -26 6 -43 -5 -13
-9 -36 -9 -51 0 -28 -24 -59 -33 -44 -3 4 -4 66 -3 136 0 71 -2 131 -6 134 -5
2 -8 -5 -8 -15 0 -22 -18 -32 -61 -32 -25 0 -29 4 -29 29 0 17 -4 33 -10 36
-11 7 -13 -5 -10 -42 1 -13 -3 -23 -9 -23 -6 0 -10 -17 -9 -37 3 -70 -15 -264
-24 -270 -6 -3 -9 41 -7 113 2 66 0 125 -4 132 -5 6 -4 12 0 12 5 0 10 39 11
88 1 48 5 95 8 105 4 14 -1 17 -25 17 -28 0 -31 -3 -29 -29 2 -25 5 -28 17
-18 12 10 13 8 6 -13 -4 -14 -8 -37 -9 -52 0 -16 -4 -28 -7 -28 -4 0 -9 -9
-12 -21 -4 -14 -2 -19 7 -16 10 4 13 -7 10 -46 -2 -48 -4 -159 -3 -217 1 -14
-3 -65 -7 -115 -10 -120 -9 -146 6 -155 7 -4 10 -15 7 -25 -5 -10 -3 -14 5 -9
8 5 9 -1 3 -22 -4 -16 -9 -53 -10 -82 -3 -61 -15 -84 -15 -29 0 20 -4 37 -10
37 -5 0 -10 -6 -10 -12 1 -96 -11 -290 -19 -310 -5 -14 -10 -51 -10 -82 0 -59
-6 -80 -22 -70 -6 3 -7 30 -2 67 4 34 7 87 8 117 0 30 3 57 6 60 3 3 9 46 12
95 4 62 3 78 -3 50 -5 -22 -9 -62 -9 -88 l-1 -48 -25 18 c-28 21 -33 45 -7 41
15 -3 17 6 19 66 1 38 6 72 12 76 6 3 13 56 16 119 5 108 5 112 -14 106 -11
-3 -21 0 -24 9 -3 8 -18 16 -34 18 -23 2 -29 9 -33 38 l-6 35 -8 -40 c-4 -22
-7 -64 -6 -92 1 -61 -16 -133 -31 -133 -7 0 -9 43 -6 130 4 118 -1 157 -17
131 -4 -5 -1 -11 4 -13 7 -2 7 -13 0 -35 -8 -23 -8 -37 0 -52 7 -14 7 -21 0
-21 -5 0 -10 -12 -10 -26 0 -14 -4 -23 -9 -20 -5 3 -11 -3 -14 -14 -3 -11 -2
-18 3 -15 9 6 20 -44 20 -92 0 -30 -2 -33 -19 -24 -22 12 -31 49 -19 81 14 37
-13 9 -70 -74 -34 -49 -51 -82 -50 -102 1 -41 -12 -94 -23 -94 -5 0 -9 7 -9
15 0 8 -9 15 -20 15 -18 0 -19 5 -14 59 3 36 1 62 -6 66 -13 8 -13 58 0 71 8
8 7 20 -2 40 -15 36 -29 46 -44 34 -6 -6 -14 -7 -17 -3 -4 3 -7 -24 -7 -61 0
-51 -6 -78 -25 -115 -17 -34 -26 -74 -31 -130 -4 -45 -11 -84 -15 -87 -5 -3
-9 -10 -9 -15 0 -6 5 -7 10 -4 6 4 10 -10 10 -34 0 -22 -4 -43 -10 -46 -5 -3
-10 -2 -10 3 0 5 -12 22 -26 37 -21 23 -25 35 -21 62 5 28 3 33 -15 33 -17 0
-19 2 -7 16 10 13 10 17 -2 24 -11 7 -15 38 -16 131 -2 67 -5 124 -7 126 -12
12 -24 -10 -20 -33 4 -23 2 -26 -16 -21 -13 3 -20 0 -20 -9 0 -13 -12 -18 -32
-15 -7 1 -9 -29 -12 -181 -1 -31 -4 -54 -8 -51 -5 2 -8 -5 -8 -16 0 -11 -7
-27 -16 -35 -8 -9 -12 -20 -9 -26 3 -5 1 -10 -4 -10 -6 0 -11 -8 -11 -17 0
-14 -2 -15 -9 -4 -6 9 -10 10 -16 2 -4 -7 1 -23 10 -37 15 -24 15 -27 -4 -60
-12 -19 -20 -50 -20 -67 1 -21 3 -25 6 -12 13 52 18 27 11 -47 -9 -97 -15
-128 -31 -146 -8 -11 -13 -9 -23 10 -11 18 -13 19 -14 6 0 -17 -11 -24 -22
-13 -6 7 25 166 36 184 5 7 1 20 -9 31 -9 10 -18 31 -21 47 -6 49 -5 578 2
815 4 149 3 228 -3 228 -12 0 -21 -114 -30 -370 -5 -161 -9 -199 -23 -217 -21
-27 -42 -15 -42 23 1 16 6 61 12 99 9 52 9 88 1 140 -24 147 -31 255 -25 390
6 122 4 151 -15 224 -12 47 -21 116 -21 156 0 66 -2 73 -21 78 -21 6 -21 5
-14 -109 6 -105 24 -175 41 -166 7 4 24 -18 24 -32 0 -5 -6 -3 -14 3 -11 9
-15 8 -20 -5 -8 -21 -20 -170 -26 -329 -1 -36 -2 -38 -11 -15 -5 14 -13 57
-18 95 -6 52 -9 60 -10 30 -5 -134 -53 -101 -76 52 -7 48 -24 135 -38 193 -14
58 -29 139 -32 180 -4 41 -13 107 -20 145 -16 88 -13 248 6 271 18 22 31 256
15 266 -6 4 -11 20 -11 35 0 31 -2 33 -45 33 -25 0 -32 -6 -45 -37 -35 -83
-65 -190 -65 -230 0 -42 -12 -57 -24 -28 -11 29 -25 14 -45 -47 -48 -152 -100
-296 -120 -338 -18 -34 -23 -61 -21 -112 1 -63 -15 -134 -45 -204 -7 -17 -16
-56 -20 -87 -4 -32 -11 -57 -16 -57 -10 0 -3 311 7 358 5 23 -10 52 -26 52 -5
0 -11 -35 -13 -77 -3 -43 -9 -103 -15 -133 -6 -30 -15 -138 -21 -240 -6 -102
-16 -213 -22 -248 -10 -57 -13 -62 -33 -56 -11 4 -27 15 -34 25 -7 10 -19 25
-27 33 -8 8 -15 31 -15 52 0 31 -2 35 -14 24 -12 -9 -16 -5 -21 27 -9 51 -13
63 -14 36 -2 -39 -21 -25 -22 15 l-2 37 -10 -37 c-12 -42 -24 -48 -35 -18 -6
17 -10 13 -21 -24 -7 -26 -18 -43 -24 -40 -9 3 -12 -19 -12 -76 0 -44 3 -80 8
-80 4 0 7 -7 7 -15 0 -8 -4 -15 -10 -15 -6 0 -10 -57 -10 -150 0 -123 3 -150
14 -150 8 0 19 12 24 28 21 57 11 -1 -13 -74 l-25 -77 0 -993 0 -994 90 0 90
0 0 40 c0 22 5 40 11 40 7 0 8 -14 4 -40 l-7 -40 1630 0 c1544 0 1631 1 1635
18 4 16 5 16 6 0 1 -17 52 -18 840 -18 666 0 840 2 844 12 4 10 6 10 6 1 1 -9
20 -13 61 -13 41 0 60 4 60 13 0 9 3 8 9 -2 10 -16 47 -7 55 14 3 8 1 15 -3
15 -5 0 -12 -6 -14 -12 -3 -7 -6 1 -6 18 -1 16 -6 35 -13 42 -9 9 -9 15 0 24
9 9 12 7 12 -10 0 -12 5 -22 11 -22 5 0 15 -13 20 -30 6 -16 15 -30 21 -30 6
0 8 6 5 14 -4 10 0 13 16 11 38 -7 50 8 42 51 -10 54 -71 114 -116 114 -41 0
-45 -3 -93 -63 -27 -33 -39 -57 -38 -77 0 -17 -3 -30 -7 -30 -17 0 -8 55 16
98 l24 44 -23 -4 c-17 -2 -23 2 -23 17 0 17 7 20 43 21 26 1 50 8 63 19 15 15
35 19 85 18 77 -1 125 -29 176 -99 25 -35 34 -41 49 -34 10 6 21 19 24 31 4
11 9 18 11 16 3 -2 -1 -16 -7 -30 -10 -21 -9 -37 5 -82 l18 -55 103 0 103 0
12 68 c27 148 59 239 46 132 -6 -48 -12 -79 -32 -178 -4 -21 -2 -22 66 -22
l70 0 0 685 c0 378 -4 684 -9 681 -11 -7 -21 45 -14 73 5 19 2 22 -18 19 -18
-2 -25 -10 -27 -30 -2 -16 -7 -28 -12 -28 -5 0 -7 -30 -5 -67 5 -63 4 -66 -8
-39 -12 25 -15 26 -21 10 -6 -15 -9 -16 -16 -4 -5 8 -7 17 -4 21 2 4 -1 20 -7
36 l-11 28 -10 -25 c-10 -24 -11 -24 -26 20 -8 25 -18 47 -22 50 -12 8 -24 53
-21 77 2 19 -2 23 -24 23 -27 0 -28 -3 -7 -60 5 -13 4 -13 -12 -1 -16 14 -17
11 -12 -42 5 -53 -4 -74 -18 -44 -5 10 -7 10 -12 0 -11 -24 -21 -13 -28 27 -7
47 -30 54 -41 12 -7 -25 -8 -25 -15 -7 -5 11 -9 41 -9 67 -1 26 -6 59 -11 74
-6 15 -11 43 -12 63 -1 20 -8 41 -17 47 -13 10 -16 63 -21 352 -3 225 -9 344
-16 353 -7 8 -15 41 -20 74 l-8 60 -7 -45 c-4 -25 -8 -69 -8 -97 -1 -29 -5
-53 -10 -53 -5 0 -7 9 -4 20 3 11 1 20 -4 20 -6 0 -11 -24 -12 -52 -2 -61 -11
-74 -40 -59 -20 11 -26 49 -24 147 0 6 -8 9 -18 7 -23 -6 -24 0 -3 31 18 29
20 131 5 386 -11 198 -32 362 -44 342 -5 -7 -12 -10 -17 -7 -5 3 -12 -5 -16
-19 -3 -13 -12 -27 -20 -30 -8 -3 -14 -15 -14 -26 0 -11 -7 -20 -15 -20 -11 0
-15 -11 -15 -43 0 -23 -7 -53 -16 -66 -14 -20 -16 -59 -14 -304 2 -155 0 -297
-5 -314 -4 -18 -4 -33 1 -33 9 0 13 -37 17 -134 1 -32 -2 -51 -10 -53 -9 -3
-13 10 -13 46 0 28 -4 51 -10 51 -5 0 -9 -34 -7 -82 2 -78 1 -83 -18 -80 -27
5 -33 18 -40 82 -3 30 -11 66 -16 80 -6 13 -13 81 -15 149 -3 89 -8 129 -19
141 -17 19 -34 91 -35 147 0 48 -8 75 -21 67 -11 -6 -12 -68 -2 -78 11 -10 3
-93 -13 -139 -11 -32 -14 -102 -14 -321 0 -155 -4 -299 -10 -321 -5 -22 -10
-57 -10 -77 0 -20 -4 -39 -9 -43 -11 -6 -16 94 -19 394 -2 112 -5 207 -7 212
-8 12 -45 -2 -45 -17 0 -8 -5 -14 -10 -14 -13 0 -9 -521 4 -560 5 -17 5 -21
-2 -11 -14 20 -21 -10 -21 -94 1 -176 -2 -235 -8 -235 -5 0 -8 171 -8 380 l0
380 -26 0 c-36 0 -56 -34 -62 -106 -5 -67 -24 -141 -27 -109 -1 11 -3 27 -4
35 -2 8 -3 167 -4 353 l-2 337 -34 0 c-37 0 -37 1 -48 -135 -3 -27 -7 -30 -42
-33 -55 -5 -66 -20 -66 -92 0 -45 -3 -61 -13 -58 -9 4 -13 92 -15 386 l-2 382
-28 0 c-15 0 -33 -4 -40 -9 -11 -6 -31 -101 -32 -148 0 -22 -58 -16 -65 7 -3
11 -13 20 -21 20 -10 0 -14 -14 -14 -54 0 -30 -4 -58 -10 -61 -7 -4 -10 122
-10 370 0 415 3 397 -63 379 -28 -9 -31 -14 -34 -53 -3 -51 -13 -69 -13 -24 0
66 -11 93 -37 93 -22 0 -24 3 -19 25 5 18 1 27 -14 35 -24 13 -26 35 -5 44 8
3 15 1 15 -3 0 -5 -6 -11 -12 -14 -7 -2 -10 -8 -5 -12 4 -5 13 -3 19 3 17 17
31 15 25 -2 -4 -10 -1 -13 9 -9 8 3 20 0 28 -6 7 -6 27 -8 45 -5 24 5 31 3 29
-7 -2 -9 9 -13 40 -12 29 0 42 -4 42 -13 0 -8 3 -13 8 -12 15 3 42 -15 42 -27
0 -8 10 -17 22 -21 28 -8 58 -44 55 -64 -3 -20 23 -49 38 -43 7 2 16 0 20 -6
9 -16 35 -14 35 3 0 9 8 12 26 8 l27 -5 -24 -13 -24 -13 24 -1 c13 0 44 -12
68 -26 41 -24 43 -27 26 -40 -17 -13 -17 -13 5 -14 12 0 22 4 22 9 0 5 12 8
28 8 26 -2 72 -38 72 -58 0 -5 3 -8 8 -8 48 8 86 -15 40 -24 -20 -4 -19 -4 5
-6 28 -1 40 -31 12 -31 -8 0 -15 -4 -15 -10 0 -5 -7 -10 -15 -10 -12 0 -13 -4
-6 -19 14 -25 68 -33 77 -12 5 13 8 12 15 -7 5 -13 13 -20 19 -17 5 3 10 1 10
-4 0 -11 35 -10 46 2 4 4 15 7 25 7 10 0 23 8 28 18 6 10 11 12 11 4 0 -10 5
-10 22 2 12 9 33 16 46 16 17 0 22 4 19 14 -7 18 43 32 53 16 6 -9 9 -9 15 0
4 6 13 9 20 6 8 -3 16 3 18 12 4 16 5 15 6 0 0 -10 6 -18 11 -18 13 0 13 6 0
31 -7 12 -7 19 -1 19 5 0 18 -23 29 -52 17 -45 20 -49 27 -30 5 17 12 21 26
17 13 -4 19 -2 19 8 0 11 7 13 23 10 21 -5 21 -5 5 12 -18 19 -38 13 -38 -13
0 -12 -3 -13 -11 -5 -14 14 5 36 38 45 16 4 23 0 28 -16 4 -11 7 -24 6 -28 0
-4 6 -5 14 -2 9 4 22 1 29 -5 8 -7 17 -8 19 -4 6 10 48 10 63 1 5 -4 25 -9 45
-13 26 -5 39 -2 48 9 18 21 28 20 34 -3 7 -28 54 -16 72 19 18 34 92 50 112
23 11 -15 13 -15 19 0 3 10 14 17 24 17 10 0 20 7 24 15 3 8 12 15 21 15 10 0
15 10 15 29 0 17 4 33 10 36 6 3 10 3 10 -2 0 -4 9 -19 20 -33 l20 -25 -1 65
c0 59 -1 63 -14 46 -8 -11 -17 -17 -20 -14 -8 7 15 68 26 68 5 0 9 120 9 279
0 235 -2 280 -15 291 -8 7 -15 23 -15 36 0 27 -21 32 -40 9 -8 -10 -17 -12
-24 -6 -11 9 -51 -12 -51 -27 0 -7 -26 -4 -34 4 -10 9 22 62 34 57 20 -7 8 68
-14 85 -9 7 -15 17 -14 22 2 5 -4 7 -13 3 -12 -4 -14 0 -8 23 12 51 45 73 58
38 5 -14 9 -12 26 9 11 14 20 30 20 36 0 18 18 12 22 -6 3 -12 16 6 36 48 l32
67 0 756 0 756 -1340 0 -1340 0 0 -32 c1 -18 -1 -201 -3 -406 -4 -397 -7 -424
-47 -372 l-20 25 -1 -40 c-1 -39 -2 -39 -9 -10 -4 17 -8 173 -9 347 -1 199 -5
319 -11 323 -15 9 -12 50 7 90 18 38 33 46 33 18 2 -99 -2 -489 -5 -528 -2
-28 0 -57 5 -65 6 -10 10 54 10 181 0 108 3 257 7 332 l6 137 -1641 0 -1642 0
0 -480z m3192 338 c2 -7 2 -157 -2 -333 -3 -176 -1 -328 3 -339 5 -10 6 -210
2 -445 -4 -234 -7 -455 -7 -491 0 -58 -1 -60 -7 -21 -6 46 -34 73 -30 30 1
-13 1 -46 0 -74 -4 -84 -20 -9 -19 91 1 52 -3 89 -10 96 -7 7 -12 44 -13 83 0
38 -3 64 -6 57 -2 -6 -10 -9 -16 -5 -6 4 -8 0 -4 -10 3 -8 -1 -21 -9 -28 -12
-10 -16 -9 -21 9 -3 12 -11 22 -19 22 -24 0 -26 42 -14 321 13 337 22 441 38
447 6 2 14 19 18 38 3 19 10 37 15 40 5 3 9 20 9 38 0 19 6 39 14 45 12 10 15
51 18 192 2 124 7 182 15 187 6 4 15 20 18 35 8 28 20 35 27 15z m435 -750
c-3 -7 -5 -2 -5 12 0 14 2 19 5 13 2 -7 2 -19 0 -25z m-731 -284 c15 6 19 -6
7 -18 -5 -4 -13 -22 -20 -39 -10 -30 -11 -29 -10 28 0 33 2 52 5 42 2 -11 9
-16 18 -13z m1164 -114 c0 -5 -4 -10 -10 -10 -5 0 -10 5 -10 10 0 6 5 10 10
10 6 0 10 -4 10 -10z m-1167 -175 c-3 -14 -9 -25 -13 -25 -9 0 -12 89 -3 104
10 15 22 -47 16 -79z m402 -330 c-5 -276 -11 -404 -22 -431 -3 -8 -11 -14 -18
-14 -7 0 -16 -6 -19 -12 -8 -17 3 257 25 622 0 8 5 51 11 95 20 141 28 43 23
-260z m-395 254 c0 -5 -6 -9 -14 -9 -8 0 -14 9 -13 19 1 15 4 17 14 9 7 -6 13
-14 13 -19z m-30 -41 c6 -21 14 -38 18 -38 12 0 6 -84 -7 -108 -14 -26 -14
-45 -1 -37 14 9 13 -48 -2 -63 -9 -9 -8 -15 7 -25 12 -10 15 -18 9 -28 -5 -8
-7 -36 -6 -64 2 -27 -1 -61 -7 -75 l-10 -25 -1 30 c0 25 -2 27 -11 13 -13 -24
-25 -23 -32 2 -3 13 -11 18 -21 14 -11 -4 -17 2 -22 22 -7 28 2 294 13 345 6
32 19 38 26 12 3 -10 5 -1 6 19 0 20 4 44 7 53 9 21 20 6 34 -47z m106 15 c-2
-3 -9 -2 -15 2 -8 4 -7 13 1 28 l13 22 3 -23 c2 -13 1 -26 -2 -29z m59 4 c9
-18 15 -42 13 -52 -5 -20 -5 -20 -12 0 -7 17 -23 55 -34 78 -2 4 0 7 6 7 5 0
17 -15 27 -33z m65 24 c0 -6 -4 -13 -10 -16 -5 -3 -10 1 -10 9 0 9 5 16 10 16
6 0 10 -4 10 -9z m2605 -115 c-1 -87 -22 -133 -55 -116 -25 13 -28 13 -32 -7
-3 -10 -8 1 -12 24 -10 57 25 130 79 161 11 6 20 12 20 12 0 0 0 -33 0 -74z
m-2758 12 c-3 -8 -6 -5 -6 6 -1 11 2 17 5 13 3 -3 4 -12 1 -19z m102 -60 c-1
-40 -1 -41 -9 -15 -8 26 -4 57 6 57 2 0 4 -19 3 -42z m-1359 12 c0 -5 -4 -10
-10 -10 -5 0 -10 -7 -10 -15 0 -8 5 -15 10 -15 6 0 10 -7 10 -15 0 -9 -6 -12
-15 -9 -11 5 -13 2 -9 -10 9 -23 -3 -20 -32 8 l-26 23 28 27 c29 27 54 34 54
16z m4050 -68 c0 -5 -7 -9 -15 -9 -8 0 -12 4 -9 9 3 4 9 8 15 8 5 0 9 -4 9 -8z
m-370 -31 c-13 -24 -30 -28 -30 -6 0 8 7 15 15 15 8 0 15 5 15 12 0 6 3 9 6 6
3 -4 1 -16 -6 -27z m-3280 -11 c0 -5 -5 -10 -11 -10 -5 0 -7 5 -4 10 3 6 8 10
11 10 2 0 4 -4 4 -10z m3223 -9 c8 -8 -2 -92 -13 -112 -7 -10 -12 -10 -27 1
-10 8 -15 10 -10 5 4 -4 -5 -16 -20 -26 -26 -17 -27 -17 -40 4 -7 12 -16 30
-19 40 -6 17 -7 17 -20 0 -20 -28 -38 -3 -30 41 8 44 22 53 46 31 22 -20 55
-13 71 16 10 19 41 19 62 0z m-2306 -23 c-3 -8 -6 -5 -6 6 -1 11 2 17 5 13 3
-3 4 -12 1 -19z m1661 0 c-2 -14 2 -22 9 -21 7 2 15 -8 19 -21 3 -14 14 -32
25 -42 20 -18 27 -84 9 -84 -5 0 -7 -7 -3 -17 5 -13 2 -15 -18 -9 -13 3 -43 9
-67 12 -33 5 -46 13 -62 38 -24 40 -18 68 29 123 40 47 64 55 59 21z m-2553
-27 c-3 -6 -11 -11 -17 -11 -6 0 -6 6 2 15 14 17 26 13 15 -4z m620 -11 c3 -5
1 -10 -4 -10 -6 0 -11 5 -11 10 0 6 2 10 4 10 3 0 8 -4 11 -10z m-85 -15 c0
-9 6 -12 15 -9 14 6 14 3 1 -22 -8 -16 -19 -40 -25 -54 -8 -21 -10 -15 -10 38
-1 35 3 62 9 62 6 0 10 -7 10 -15z m1868 -10 c31 3 33 1 30 -28 -2 -16 -11
-35 -21 -41 -15 -9 -22 -7 -38 13 -10 13 -19 35 -19 50 0 14 4 21 8 15 4 -6
22 -10 40 -9z m-1784 -47 c-9 -59 -14 -60 -14 -5 0 26 5 47 10 47 6 0 8 -16 4
-42z m415 -55 c0 -53 -3 -72 -9 -58 -14 33 -9 135 6 135 2 0 4 -35 3 -77z m38
-5 c-2 -13 -4 -5 -4 17 -1 22 1 32 4 23 2 -10 2 -28 0 -40z m-536 -35 c5 -122
-2 -244 -13 -236 -12 7 -10 253 2 253 6 0 10 -8 11 -17z m159 8 c0 9 5 8 18
-4 16 -16 17 -45 14 -351 -2 -334 -14 -601 -26 -613 -3 -3 -9 -4 -12 -1 -3 4
0 137 8 297 7 160 10 291 6 291 -5 0 -9 -9 -9 -20 -1 -11 -3 -24 -4 -30 -1 -5
-3 -58 -4 -117 -1 -131 -13 -129 -16 2 -1 56 -6 100 -13 107 -9 9 -8 16 3 28
13 15 13 20 1 46 -15 30 -15 81 -1 103 4 8 2 17 -5 21 -9 6 -11 25 -6 71 4 35
8 87 10 114 4 69 4 69 21 55 12 -10 15 -10 15 1z m-99 -96 c-9 -39 -9 -39 -9
20 0 33 3 65 7 70 11 17 12 -48 2 -90z m178 53 c-1 -15 -17 -55 -19 -48 -9 33
-7 60 6 60 8 0 14 -6 13 -12z m-664 -37 c10 -17 -12 -21 -25 -6 -10 12 -10 15
3 15 9 0 18 -4 22 -9z m2553 -27 c-10 -10 -28 6 -28 24 0 15 1 15 17 -1 9 -9
14 -19 11 -23z m127 6 c43 -16 60 -110 20 -110 -8 0 -15 -4 -15 -8 0 -4 -14
-13 -32 -20 -26 -10 -36 -9 -54 3 -19 12 -22 22 -19 59 6 81 33 101 100 76z
m-1755 -10 c0 -5 -4 -10 -10 -10 -5 0 -10 5 -10 10 0 6 5 10 10 10 6 0 10 -4
10 -10z m-269 -17 c5 -90 3 -120 -8 -120 -8 0 -12 22 -12 69 0 37 5 68 10 68
5 0 9 -8 10 -17z m132 -32 c-9 -12 -23 18 -16 35 6 17 8 17 13 -6 4 -14 5 -27
3 -29z m-563 29 c0 -5 -7 -10 -16 -10 -8 0 -12 5 -9 10 3 6 10 10 16 10 5 0 9
-4 9 -10z m25 -40 c3 -5 2 -10 -4 -10 -5 0 -13 5 -16 10 -3 6 -2 10 4 10 5 0
13 -4 16 -10z m545 -31 c0 -6 -4 -7 -10 -4 -5 3 -10 11 -10 16 0 6 5 7 10 4 6
-3 10 -11 10 -16z m890 -45 c0 -30 -5 -54 -10 -54 -6 0 -10 26 -9 60 2 74 19
69 19 -6z m-820 14 c0 -23 -3 -29 -11 -21 -6 6 -8 20 -4 32 9 30 15 26 15 -11z
m958 -68 c0 -49 -4 -93 -9 -96 -6 -4 -9 32 -8 95 2 124 17 125 17 1z m-1508
58 c0 -5 -4 -8 -10 -8 -5 0 -10 10 -10 23 0 18 2 19 10 7 5 -8 10 -18 10 -22z
m500 -75 c0 -54 -7 -197 -16 -318 -19 -254 -39 -320 -29 -95 3 80 8 213 10
295 2 83 7 165 11 183 13 61 24 32 24 -65z m470 46 c0 -6 -4 -7 -10 -4 -5 3
-10 11 -10 16 0 6 5 7 10 4 6 -3 10 -11 10 -16z m-2780 -24 c-17 -21 -30 -19
-30 4 0 11 8 21 18 23 22 5 27 -8 12 -27z m2345 -73 c-4 -54 -11 -114 -16
-133 -9 -36 -5 54 8 174 9 92 15 65 8 -41z m-191 27 c-6 -11 -24 -2 -24 11 0
5 7 7 15 4 8 -4 12 -10 9 -15z m-2159 1 c8 -12 -13 -52 -24 -46 -10 7 -2 56
10 56 4 0 11 -4 14 -10z m3675 0 c0 -5 -2 -10 -4 -10 -3 0 -8 5 -11 10 -3 6
-1 10 4 10 6 0 11 -4 11 -10z m-3740 -64 c0 -24 -2 -27 -15 -16 -15 13 -20 51
-8 63 10 11 23 -15 23 -47z m2847 32 c-3 -8 -6 -5 -6 6 -1 11 2 17 5 13 3 -3
4 -12 1 -19z m993 -18 c0 -5 -4 -10 -9 -10 -6 0 -13 5 -16 10 -3 6 1 10 9 10
9 0 16 -4 16 -10z m-1625 -29 c3 -5 1 -12 -5 -16 -5 -3 -10 1 -10 9 0 18 6 21
15 7z m62 -58 c-4 -38 -8 -90 -9 -118 -1 -35 -3 -24 -7 35 -7 99 -3 150 12
150 6 0 8 -24 4 -67z m-197 47 c0 -5 -5 -10 -11 -10 -5 0 -7 5 -4 10 3 6 8 10
11 10 2 0 4 -4 4 -10z m677 -32 c-3 -8 -6 -5 -6 6 -1 11 2 17 5 13 3 -3 4 -12
1 -19z m-538 -15 c0 -25 -1 -26 -9 -8 -12 27 -12 35 0 35 6 0 10 -12 9 -27z
m-2239 -24 c0 -10 -4 -19 -10 -19 -5 0 -10 12 -10 26 0 14 4 23 10 19 6 -3 10
-15 10 -26z m2083 -38 c-11 -50 -23 -45 -23 10 1 49 2 52 15 35 9 -12 12 -29
8 -45z m794 12 c-3 -10 -5 -2 -5 17 0 19 2 27 5 18 2 -10 2 -26 0 -35z m-751
-30 c-10 -10 -19 5 -10 18 6 11 8 11 12 0 2 -7 1 -15 -2 -18z m285 -53 c-6
-44 -9 -53 -10 -29 -1 37 9 102 15 96 2 -1 -1 -32 -5 -67z m359 -404 c-14 -14
-16 320 -2 424 4 36 8 -25 10 -179 1 -150 -1 -238 -8 -245z m-2808 442 c-7 -7
-12 -8 -12 -2 0 14 12 26 19 19 2 -3 -1 -11 -7 -17z m3546 -220 c-2 -95 -7
-159 -13 -161 -11 -2 -20 358 -9 383 14 33 24 -69 22 -222z m-3570 185 c-1
-16 -7 -36 -14 -46 -10 -16 -11 -15 -9 10 2 28 14 63 21 63 2 0 3 -12 2 -27z
m2003 -36 c-8 -8 -11 -5 -11 9 0 27 14 41 18 19 2 -9 -1 -22 -7 -28z m-109
-69 c-2 -57 -7 -107 -12 -111 -4 -5 -7 31 -5 80 3 120 4 133 13 133 4 0 5 -46
4 -102z m78 5 c-4 -54 -2 -102 2 -107 5 -6 8 -4 9 5 1 7 5 3 10 -11 7 -20 8
-15 5 20 -2 25 -1 39 1 31 5 -11 7 -11 14 0 4 7 11 11 14 7 10 -10 7 -406 -4
-498 -6 -47 -15 -154 -21 -238 -11 -156 -15 -182 -31 -182 -10 0 -13 21 -10
58 1 12 -3 22 -8 22 -6 0 -8 -7 -5 -15 4 -8 1 -15 -5 -15 -6 0 -11 20 -11 48
0 36 7 60 29 94 26 41 30 56 31 130 2 120 1 130 -10 123 -5 -3 -10 -1 -10 4 0
6 6 11 13 11 11 0 16 27 20 107 4 58 6 129 6 157 -2 52 -6 23 -24 -171 -5 -50
-10 -61 -23 -59 -22 4 -29 36 -8 36 19 0 22 40 5 57 -9 9 -8 15 2 26 16 16 14
181 -2 171 -5 -3 -9 -15 -8 -27 1 -12 1 -38 -1 -57 -2 -25 -5 -15 -11 34 -4
41 -4 79 2 94 7 18 6 28 -3 33 -10 6 -10 13 -3 26 12 20 13 118 2 130 -11 10
-8 35 3 28 6 -3 7 1 4 9 -4 11 0 16 12 16 18 0 19 -7 14 -97z m323 77 c-3 -11
-7 -20 -9 -20 -2 0 -4 9 -4 20 0 11 4 20 9 20 5 0 7 -9 4 -20z m-241 -50 c3
-17 1 -33 -4 -36 -4 -3 -8 11 -8 30 0 44 6 47 12 6z m244 -31 c1 -16 -2 -32
-7 -35 -5 -3 -9 14 -9 37 0 47 14 45 16 -2z m-81 -52 c-13 -195 -14 -258 -5
-252 5 3 11 1 14 -4 9 -14 -16 -321 -26 -321 -5 0 -9 80 -8 178 0 97 0 204 0
237 0 33 1 74 3 90 2 17 5 58 5 93 1 39 6 61 12 57 6 -3 8 -36 5 -78z m-1758
41 c-3 -7 -5 -2 -5 12 0 14 2 19 5 13 2 -7 2 -19 0 -25z m1994 -118 l-10 -55
4 55 c3 30 6 78 7 105 l2 50 3 -50 c2 -27 -1 -75 -6 -105z m-114 43 c-2 -16
-4 -3 -4 27 0 30 2 43 4 28 2 -16 2 -40 0 -55z m-273 -48 c0 -41 -4 -78 -7
-82 -4 -3 -7 27 -7 69 0 61 4 88 14 88 1 0 1 -34 0 -75z m226 -51 c0 -8 -5
-12 -10 -9 -6 4 -8 11 -5 16 9 14 15 11 15 -7z m80 -30 c0 -14 -4 -23 -10 -19
-5 3 -10 15 -10 26 0 10 5 19 10 19 6 0 10 -12 10 -26z m237 -26 c-3 -7 -5 -2
-5 12 0 14 2 19 5 13 2 -7 2 -19 0 -25z m425 -585 c-2 -589 -7 -836 -20 -883
-4 -14 -10 79 -13 205 -7 266 -1 1249 8 1271 4 10 9 12 16 5 6 -6 9 -213 9
-598z m108 551 c0 -61 -15 -56 -17 6 -1 31 2 48 7 45 6 -4 10 -26 10 -51z
m-711 -25 c-15 -9 -14 17 -23 -594 -4 -231 -11 -472 -16 -535 -10 -121 -8
-153 5 -73 8 46 8 47 15 17 10 -45 -2 -167 -17 -172 -9 -2 -13 7 -13 29 0 54
-10 27 -14 -40 -4 -53 -2 -61 12 -59 9 2 18 -5 20 -16 3 -15 0 -18 -17 -13
-20 5 -22 2 -21 -46 0 -29 -4 -74 -9 -102 -13 -65 -13 -77 -2 -71 11 7 18 -58
13 -113 -3 -34 -7 -39 -29 -37 l-25 1 6 100 c29 475 38 589 49 650 8 48 12
232 13 590 l2 520 26 0 c16 -1 27 5 27 15 1 8 4 2 6 -14 3 -17 -1 -32 -8 -37z
m-129 41 c13 -8 11 -11 -7 -16 -17 -5 -24 -16 -29 -50 -3 -25 -4 -58 0 -75 3
-16 2 -28 -2 -25 -5 3 -15 -85 -22 -194 -7 -110 -17 -200 -21 -200 -10 0 -10
14 2 185 17 244 29 356 42 370 15 17 18 17 37 5z m-430 -20 c0 -11 5 -20 10
-20 6 0 9 -17 9 -37 -2 -32 -3 -33 -6 -10 -3 16 -11 31 -19 34 -16 6 -20 53
-4 53 6 0 10 -9 10 -20z m490 -31 c0 -16 -4 -29 -10 -29 -5 0 -10 16 -10 36 0
21 4 33 10 29 6 -3 10 -19 10 -36z m-289 -106 c-1 -49 -7 -93 -16 -109 -13
-27 -14 -26 -10 22 2 27 4 87 5 134 1 68 3 80 12 60 5 -14 9 -62 9 -107z
m1066 0 c-2 -16 -4 -3 -4 27 0 30 2 43 4 28 2 -16 2 -40 0 -55z m671 -114 c4
-174 -1 -206 -31 -181 -8 7 -17 9 -20 5 -4 -3 -8 34 -8 83 -1 49 -2 112 -3
139 -1 28 0 61 3 75 5 20 7 16 12 -20 l6 -45 1 52 c2 64 11 88 26 73 6 -6 12
-76 14 -181z m-3848 171 c0 -5 -9 -10 -21 -10 -11 0 -17 5 -14 10 3 6 13 10
21 10 8 0 14 -4 14 -10z m2881 -791 c-10 -718 -21 -969 -43 -969 -4 0 -8 11
-8 24 0 13 -10 55 -23 94 -13 39 -18 70 -13 69 6 -1 14 25 18 58 8 69 24 517
33 940 4 160 11 342 16 405 5 63 9 126 9 140 0 17 3 21 11 13 7 -7 7 -236 0
-774z m-1116 650 c-1 -55 -5 -102 -8 -105 -3 -3 -3 -21 0 -39 3 -19 2 -55 -2
-81 -6 -41 -8 -45 -22 -32 -12 12 -15 47 -15 169 -1 170 3 199 31 192 15 -4
17 -16 16 -104z m180 57 c8 -39 -2 -79 -16 -71 -12 8 -12 105 1 105 5 0 12
-15 15 -34z m1052 -43 c-2 -16 -4 -3 -4 27 0 30 2 43 4 28 2 -16 2 -40 0 -55z
m-848 -15 c0 -61 -3 -76 -9 -55 -8 25 -2 137 6 137 2 0 4 -37 3 -82z m1034 27
c4 -8 2 -17 -3 -20 -6 -4 -10 3 -10 14 0 25 6 27 13 6z m-486 -17 c-3 -8 -6
-5 -6 6 -1 11 2 17 5 13 3 -3 4 -12 1 -19z m-707 -14 c0 -8 -4 -12 -10 -9 -5
3 -10 10 -10 16 0 5 5 9 10 9 6 0 10 -7 10 -16z m1200 -76 c0 -39 -2 -69 -4
-67 -9 10 -14 139 -6 139 6 0 10 -32 10 -72z m547 5 c-2 -16 -4 -5 -4 22 0 28
2 40 4 28 2 -13 2 -35 0 -50z m-1943 7 c-5 -5 -10 3 -11 18 -1 22 0 24 9 8 6
-10 6 -22 2 -26z m1216 -16 c0 -24 -4 -44 -10 -44 -5 0 -10 23 -10 51 0 31 4
48 10 44 6 -3 10 -26 10 -51z m-913 4 c-3 -8 -6 -5 -6 6 -1 11 2 17 5 13 3 -3
4 -12 1 -19z m-270 -343 c-10 -166 -26 -203 -29 -64 -1 75 -2 84 -7 44 l-6
-50 -8 62 c-4 34 -12 65 -17 68 -15 9 -12 25 5 25 12 0 15 14 15 64 0 36 4 67
9 71 6 3 13 27 17 53 3 26 9 52 13 57 11 18 16 -188 8 -330z m45 208 c-8 -27
-22 0 -22 42 0 71 14 89 20 25 3 -30 4 -61 2 -67z m1618 -58 c0 -110 -4 -175
-10 -175 -6 0 -10 63 -10 168 0 148 3 182 17 182 2 0 3 -79 3 -175z m-1485
128 c9 4 11 -1 7 -15 -5 -20 -6 -20 -19 -3 -7 11 -12 28 -12 39 2 18 2 18 6
-2 3 -14 10 -22 18 -19z m-2455 -13 c0 -10 -4 -21 -9 -25 -12 -7 -25 31 -16
45 9 15 25 2 25 -20z m35 10 c3 -5 1 -10 -4 -10 -6 0 -11 5 -11 10 0 6 2 10 4
10 3 0 8 -4 11 -10z m2585 0 c0 -5 -5 -10 -11 -10 -5 0 -7 5 -4 10 3 6 8 10
11 10 2 0 4 -4 4 -10z m849 -670 c1 -395 -16 -909 -31 -928 -28 -33 -31 11
-19 290 6 156 13 509 15 785 3 276 8 508 13 515 11 17 20 -271 22 -662z m268
266 c-7 -461 -19 -554 -31 -241 -5 121 -8 262 -7 313 1 61 -2 92 -9 92 -12 0
-5 136 10 180 4 14 11 34 15 45 6 19 7 19 17 1 7 -12 8 -139 5 -390z m440 352
c-2 -13 -4 -5 -4 17 -1 22 1 32 4 23 2 -10 2 -28 0 -40z m-1627 33 c0 -6 -4
-13 -10 -16 -5 -3 -10 1 -10 9 0 9 5 16 10 16 6 0 10 -4 10 -9z m128 -40 c4
-14 7 -53 6 -86 -6 -147 -16 -1219 -11 -1215 8 8 16 153 16 325 1 85 5 144 10
137 4 -8 8 -102 9 -210 0 -130 4 -198 11 -200 6 -2 11 -8 11 -13 0 -6 -4 -7
-10 -4 -5 3 -10 -1 -10 -9 0 -8 5 -18 10 -21 6 -3 10 -25 9 -48 -1 -34 -2 -37
-8 -17 -7 22 -8 20 -14 -17 -4 -24 -12 -43 -17 -43 -6 0 -10 5 -10 10 0 6 -4
10 -10 10 -5 0 -10 -11 -10 -24 0 -31 -17 -43 -25 -17 -3 10 -3 223 0 472 3
250 5 567 6 704 1 164 5 255 12 265 6 8 7 12 3 8 -9 -8 -36 9 -36 22 0 4 11 5
24 3 16 -3 28 -15 34 -32z m-2633 -28 c-8 -27 -15 -51 -15 -55 0 -4 -7 -5 -16
-1 -9 3 -20 0 -24 -7 -4 -7 -13 -10 -18 -6 -13 8 -5 36 10 36 11 0 38 25 38
36 0 7 30 44 36 44 2 0 -3 -21 -11 -47z m-57 -15 c-29 -18 -37 -3 -17 35 l12
21 9 -24 c6 -16 5 -26 -4 -32z m3852 31 c0 -6 -4 -7 -10 -4 -5 3 -10 11 -10
16 0 6 5 7 10 4 6 -3 10 -11 10 -16z m-1305 -16 c-2 -16 -10 -93 -16 -173 -6
-80 -14 -147 -16 -150 -8 -7 5 299 13 328 9 32 24 27 19 -5z m90 7 c8 -24 -14
-158 -27 -166 -9 -6 -11 146 -2 170 8 22 21 20 29 -4z m1534 -317 c1 -171 -3
-208 -20 -197 -10 6 -11 347 0 454 l6 65 6 -75 c4 -41 7 -152 8 -247z m-2052
285 c-3 -8 -6 -5 -6 6 -1 11 2 17 5 13 3 -3 4 -12 1 -19z m209 -26 c-11 -10
-15 4 -8 28 l7 25 3 -23 c2 -13 1 -26 -2 -30z m740 -284 c-4 -183 -8 -351 -10
-373 -13 -158 -48 -517 -58 -595 -6 -52 -12 -105 -12 -117 -1 -34 -23 -28 -30
7 -5 27 17 307 29 370 9 45 34 370 50 640 8 146 18 295 21 333 13 146 17 52
10 -265z m783 239 l-1 -82 -9 55 c-15 95 -15 125 1 115 6 -3 9 -43 9 -88z m53
61 c-7 -7 -12 -8 -12 -2 0 14 12 26 19 19 2 -3 -1 -11 -7 -17z m-3399 -5 c-7
-3 -13 -12 -14 -21 0 -11 -2 -13 -6 -4 -6 15 17 46 26 36 3 -4 0 -9 -6 -11z
m1649 -38 c-6 -34 -12 -32 -12 6 0 16 4 28 9 25 4 -3 6 -17 3 -31z m2390 -22
c4 -49 4 -193 -1 -331 -1 -45 -20 -31 -20 16 0 51 -18 163 -21 132 -1 -14 -3
-31 -4 -37 0 -7 -5 -13 -11 -13 -6 0 -11 46 -13 112 -3 116 4 161 18 123 6
-16 8 -13 14 18 11 58 32 47 38 -20z m-1385 -358 c5 -293 3 -371 -11 -480 -20
-157 -19 -154 -59 -185 -17 -14 -28 -19 -24 -13 5 7 12 156 17 330 5 175 19
406 30 513 10 107 20 206 21 220 1 24 1 24 10 -5 6 -16 13 -187 16 -380z m492
288 c-1 -60 -4 -95 -8 -79 -6 30 -3 186 5 186 2 0 3 -48 3 -107z m-1278 14
c-8 -8 -11 1 -11 29 0 53 14 67 18 19 2 -21 -1 -42 -7 -48z m1636 38 c-1 -49
-17 -44 -17 6 0 22 4 38 9 35 5 -3 9 -22 8 -41z m-107 -47 c0 -45 -4 -78 -8
-72 -8 9 -4 154 4 154 2 0 4 -37 4 -82z m-1925 56 c12 -13 14 -30 10 -82 -13
-157 -20 -192 -40 -192 -19 0 -26 41 -24 155 3 128 16 157 54 119z m2254 -69
c-1 -73 -6 -62 -11 23 -3 34 -1 57 4 50 4 -7 7 -40 7 -73z m-3742 53 c-3 -8
-6 -5 -6 6 -1 11 2 17 5 13 3 -3 4 -12 1 -19z m-468 -90 c-12 -46 -24 -95 -27
-110 -2 -16 -7 -28 -11 -28 -9 0 -1 82 9 95 5 6 11 28 16 50 9 51 23 89 30 82
3 -3 -4 -43 -17 -89z m808 -80 c-2 -29 -3 -8 -3 47 0 55 1 79 3 53 2 -26 2
-71 0 -100z m160 120 c-3 -8 -6 -5 -6 6 -1 11 2 17 5 13 3 -3 4 -12 1 -19z
m1733 -68 l-7 -85 -1 81 c-1 44 1 84 5 87 9 10 9 10 3 -83z m-2230 40 c0 -13
-1 -13 -10 0 -5 8 -10 22 -10 30 0 13 1 13 10 0 5 -8 10 -22 10 -30z m1676 15
c7 -30 -2 -75 -16 -75 -6 0 -10 23 -10 50 0 53 15 67 26 25z m3024 -5 c0 -5
-4 -10 -10 -10 -5 0 -10 5 -10 10 0 6 5 10 10 10 6 0 10 -4 10 -10z m-4195
-75 c0 -80 -18 -104 -23 -33 -4 49 5 108 16 108 5 0 8 -34 7 -75z m1220 3 c-1
-40 -3 -77 -5 -83 -1 -5 -1 -12 0 -15 6 -16 5 -52 -2 -56 -4 -3 -8 7 -9 23 0
15 -2 46 -5 68 -5 37 -6 77 -4 118 1 9 7 17 14 17 10 0 13 -18 11 -72z m119
16 c2 -16 -1 -34 -6 -41 -6 -7 -6 -19 1 -32 7 -12 7 -21 1 -23 -5 -2 -13 -38
-16 -82 -3 -43 -8 -86 -9 -95 -2 -9 -4 -45 -4 -80 -1 -38 -5 -61 -10 -55 -8 9
0 242 14 382 8 73 23 86 29 26z m1513 14 c-3 -8 -6 -5 -6 6 -1 11 2 17 5 13 3
-3 4 -12 1 -19z m117 -288 c0 -140 -4 -277 -9 -305 l-9 -50 -7 85 c-4 47 -8
168 -9 270 -2 128 -5 173 -11 145 -4 -22 -8 -76 -9 -120 -1 -65 -3 -75 -12
-55 -6 15 -8 62 -4 117 4 75 9 96 26 113 13 13 20 33 20 58 1 33 2 35 13 17 9
-14 12 -91 11 -275z m153 238 c-2 -13 -4 -5 -4 17 -1 22 1 32 4 23 2 -10 2
-28 0 -40z m-4041 26 c-3 -9 -6 -18 -6 -20 0 -2 -4 -4 -9 -4 -5 0 -7 9 -4 20
3 11 10 20 15 20 6 0 7 -7 4 -16z m4279 6 c3 -5 1 -10 -4 -10 -6 0 -11 5 -11
10 0 6 2 10 4 10 3 0 8 -4 11 -10z m-4175 -21 c0 -11 -5 -29 -11 -40 -5 -11
-14 -39 -19 -62 -7 -32 -7 -24 -3 33 3 41 8 78 10 83 9 15 23 6 23 -14z m1387
-11 c-3 -7 -5 -2 -5 12 0 14 2 19 5 13 2 -7 2 -19 0 -25z m2660 -30 c-2 -13
-4 -5 -4 17 -1 22 1 32 4 23 2 -10 2 -28 0 -40z m180 -40 c-2 -18 -4 -6 -4 27
0 33 2 48 4 33 2 -15 2 -42 0 -60z m-1945 33 c0 -14 1 -32 1 -38 -1 -7 3 -13
7 -13 4 0 5 -15 1 -32 -4 -18 -9 -139 -10 -268 l-2 -234 25 27 c29 32 80 38
74 10 -2 -12 -13 -18 -33 -18 -23 0 -31 -5 -33 -22 -2 -12 -13 -24 -27 -27
-13 -3 -31 -9 -41 -13 -14 -5 -16 -2 -11 18 8 36 11 611 3 630 -6 13 -2 16 18
12 20 -4 26 -12 28 -32z m-2508 14 c-8 -19 -24 -19 -24 0 0 8 7 15 15 15 9 0
12 -6 9 -15z m3699 -392 c-4 -163 -3 -223 6 -223 13 0 14 -105 4 -313 -4 -83
-10 -134 -16 -130 -5 3 -13 -1 -18 -8 -10 -14 2 1060 12 1081 9 22 17 -227 12
-407z m205 372 c-3 -3 -9 2 -12 12 -6 14 -5 15 5 6 7 -7 10 -15 7 -18z m262
-81 c0 -52 -3 -93 -7 -91 -8 5 -5 187 3 187 2 0 4 -43 4 -96z m-2200 32 c0
-18 -17 8 -24 34 l-7 25 15 -25 c9 -14 15 -29 16 -34z m488 -8 c-8 -77 -28
-85 -28 -12 0 34 3 64 6 67 16 16 26 -10 22 -55z m-841 20 c-3 -8 -6 -5 -6 6
-1 11 2 17 5 13 3 -3 4 -12 1 -19z m2288 -285 c-4 -170 -11 -339 -15 -378 -5
-43 -7 56 -4 253 4 302 10 432 21 432 3 0 2 -138 -2 -307z m205 200 c0 -53 -2
-94 -4 -92 -2 2 -7 48 -10 103 -5 68 -4 96 3 91 7 -4 11 -45 11 -102z m-1547
35 c-8 -85 -14 -87 -12 -5 1 37 5 67 10 67 5 0 6 -28 2 -62z m1866 -155 c-1
-100 2 -187 6 -193 3 -5 6 -45 7 -87 l0 -78 14 39 c8 21 19 45 25 52 13 16 33
19 24 4 -9 -14 -16 -77 -17 -145 -1 -44 -6 -65 -19 -77 -10 -10 -21 -39 -24
-65 -9 -64 -12 -73 -27 -73 -11 0 -11 19 -3 95 5 53 7 151 3 218 -9 183 -8
536 2 512 5 -11 9 -102 9 -202z m959 182 c12 -19 22 -41 22 -49 0 -8 5 -18 10
-21 6 -3 10 -14 10 -23 0 -15 -2 -15 -10 -2 -11 18 -13 -3 -15 -278 -1 -155
-5 -196 -16 -203 -24 -15 -26 -11 -33 52 -9 86 -8 559 2 559 4 0 17 -16 30
-35z m-3074 9 c6 -16 2 -77 -11 -154 -5 -34 -5 -35 -15 -10 -11 28 -1 180 12
180 4 0 11 -7 14 -16z m1963 -6 c-3 -8 -6 -5 -6 6 -1 11 2 17 5 13 3 -3 4 -12
1 -19z m-2083 -37 c2 -23 0 -54 -4 -69 -6 -20 -9 -8 -9 47 -1 79 6 92 13 22z
m-57 17 c-3 -8 -6 -5 -6 6 -1 11 2 17 5 13 3 -3 4 -12 1 -19z m-518 -15 c0
-25 -1 -26 -9 -8 -12 27 -12 35 0 35 6 0 10 -12 9 -27z m176 -2 c8 -25 -11
-71 -30 -71 -19 0 -20 42 -3 70 16 25 25 25 33 1z m2977 -116 c-2 -19 -8 -35
-13 -35 -11 0 -12 143 -1 154 9 10 19 -74 14 -119z m-273 73 c-1 -39 -2 -41
-8 -13 -4 17 -5 36 -3 43 8 23 12 12 11 -30z m-112 -40 c-2 -13 -4 -3 -4 22 0
25 2 35 4 23 2 -13 2 -33 0 -45z m-3020 27 c-4 -8 -11 -15 -17 -15 -7 0 -7 6
0 21 13 23 26 19 17 -6z m-857 -16 c0 -16 -4 -28 -9 -25 -8 5 -3 56 5 56 2 0
4 -14 4 -31z m1097 9 c-3 -8 -6 -5 -6 6 -1 11 2 17 5 13 3 -3 4 -12 1 -19z
m539 5 c-10 -36 -10 -137 1 -140 8 -3 8 -15 1 -39 -5 -19 -6 -45 -3 -57 5 -17
4 -19 -4 -7 -11 16 -12 13 -15 -49 -1 -13 -6 -26 -13 -28 -17 -6 -16 125 2
201 8 34 15 78 15 99 0 20 5 37 11 37 6 0 8 -8 5 -17z m-376 -49 c0 -8 -9 -14
-20 -14 -22 0 -26 10 -8 28 13 13 28 7 28 -14z m264 -67 c1 -59 -2 -73 -11
-65 -8 6 -12 37 -12 85 1 100 21 82 23 -20z m-144 79 c0 -3 -4 -8 -10 -11 -5
-3 -10 -1 -10 4 0 6 5 11 10 11 6 0 10 -2 10 -4z m2334 -28 c3 -13 6 -75 6
-139 0 -92 -3 -119 -15 -129 -13 -11 -15 5 -15 139 0 139 9 185 24 129z
m-3164 -52 l-1 -51 -19 35 c-26 48 -26 80 0 73 17 -4 20 -14 20 -57z m525 55
c3 -5 1 -12 -5 -16 -5 -3 -10 1 -10 9 0 18 6 21 15 7z m3032 -23 c-3 -7 -5 -2
-5 12 0 14 2 19 5 13 2 -7 2 -19 0 -25z m-2717 1 c0 -18 -2 -20 -15 -9 -13 11
-13 15 -3 21 18 12 18 12 18 -12z m-130 -3 c0 -8 -4 -18 -10 -21 -5 -3 -10 3
-10 14 0 12 5 21 10 21 6 0 10 -6 10 -14z m2337 -33 c-3 -10 -5 -4 -5 12 0 17
2 24 5 18 2 -7 2 -21 0 -30z m272 -137 c-9 -8 -10 6 -5 59 3 39 7 81 8 95 1
14 4 -13 5 -59 3 -55 0 -88 -8 -95z m1070 -176 c1 -104 -3 -200 -9 -220 -12
-40 -12 -126 -1 -155 4 -11 6 -28 3 -37 -3 -14 -8 -15 -24 -7 -14 8 -18 17
-14 37 22 104 32 443 21 667 0 17 1 37 4 45 9 24 19 -131 20 -330z m-3166 268
c-2 -5 -12 -8 -22 -8 -13 0 -19 8 -19 28 0 39 21 47 35 14 6 -15 9 -30 6 -34z
m2039 5 c3 -16 4 -46 3 -68 -1 -22 -3 -91 -4 -154 -1 -137 -9 -144 -11 -11 -1
52 -6 128 -11 168 -6 39 -7 77 -4 82 11 18 22 11 27 -17z m318 -138 c0 -92 -4
-156 -10 -160 -7 -4 -10 52 -10 160 0 108 3 164 10 160 6 -4 10 -68 10 -160z
m-463 -1 c-4 -86 -9 -159 -12 -162 -3 -3 -5 67 -5 156 0 115 3 162 11 162 9 0
10 -43 6 -156z m-1947 138 c0 -5 -3 -12 -7 -16 -5 -4 -8 -22 -8 -38 0 -17 -6
-33 -13 -35 -12 -5 -11 28 3 75 7 21 25 31 25 14z m1882 -238 l-9 -219 -1 230
c-2 164 1 226 9 218 8 -8 8 -74 1 -229z m605 179 c-3 -10 -5 -4 -5 12 0 17 2
24 5 18 2 -7 2 -21 0 -30z m-3900 -5 c-3 -8 -6 -5 -6 6 -1 11 2 17 5 13 3 -3
4 -12 1 -19z m563 12 c0 -5 -4 -10 -10 -10 -5 0 -10 5 -10 10 0 6 5 10 10 10
6 0 10 -4 10 -10z m27 -12 c-3 -8 -6 -5 -6 6 -1 11 2 17 5 13 3 -3 4 -12 1
-19z m613 -8 c0 -5 -4 -10 -10 -10 -5 0 -10 5 -10 10 0 6 5 10 10 10 6 0 10
-4 10 -10z m2580 -112 c0 -70 -4 -118 -9 -113 -8 9 -3 235 5 235 2 0 4 -55 4
-122z m-2327 -7 c0 -72 -10 -146 -20 -146 -13 0 -16 55 -3 69 8 10 7 21 -1 39
-7 16 -9 43 -4 73 6 41 8 45 18 29 5 -10 10 -39 10 -64z m-773 47 c0 -16 -3
-19 -11 -11 -6 6 -8 16 -5 22 11 17 16 13 16 -11z m-670 -18 c0 -11 -4 -20
-10 -20 -5 0 -10 9 -10 20 0 11 5 20 10 20 6 0 10 -9 10 -20z m1353 6 c19 -14
23 -36 7 -36 -5 0 -10 5 -10 10 0 6 -7 10 -15 10 -8 0 -15 7 -15 15 0 18 9 19
33 1z m1752 -474 c-15 -15 -18 24 -16 200 2 292 16 323 19 44 1 -131 0 -241
-3 -244z m913 262 c-1 -95 -6 -167 -10 -160 -17 31 -15 351 3 341 7 -5 9 -66
7 -181z m-1861 104 c-3 -8 -6 -5 -6 6 -1 11 2 17 5 13 3 -3 4 -12 1 -19z
m1390 -25 c-3 -10 -5 -2 -5 17 0 19 2 27 5 18 2 -10 2 -26 0 -35z m-1427 -19
c0 -8 -4 -12 -10 -9 -5 3 -10 10 -10 16 0 5 5 9 10 9 6 0 10 -7 10 -16z m1700
-50 c0 -31 2 -34 30 -34 24 0 33 -6 40 -26 14 -36 12 -77 -5 -110 -8 -16 -15
-37 -15 -46 0 -21 -53 -171 -79 -223 l-20 -40 -1 43 c0 24 5 52 11 63 27 51
52 309 30 309 -9 0 -21 89 -14 103 9 17 23 -6 23 -39z m-2471 26 c4 0 8 -24 9
-54 1 -30 2 -58 3 -62 4 -21 -2 -34 -14 -34 -8 0 -20 -11 -27 -25 -7 -13 -17
-22 -23 -18 -5 3 -13 0 -17 -6 -5 -8 -13 -4 -24 15 -10 14 -13 23 -7 20 8 -5
11 16 11 68 0 72 1 76 28 90 15 9 33 13 40 11 8 -3 17 -5 21 -5z m191 -16 c0
-2 -7 -4 -15 -4 -8 0 -15 4 -15 10 0 5 7 7 15 4 8 -4 15 -8 15 -10z m3010 -9
c0 -8 -4 -15 -10 -15 -5 0 -7 7 -4 15 4 8 8 15 10 15 2 0 4 -7 4 -15z m-3314
-30 c-3 -8 0 -15 7 -15 8 0 8 -3 -2 -9 -8 -5 -14 -26 -14 -50 0 -31 -5 -44
-19 -52 -11 -6 -21 -9 -24 -7 -2 2 -4 30 -5 62 -2 47 2 62 16 72 25 19 49 18
41 -1z m200 -22 c-10 -10 -19 5 -10 18 6 11 8 11 12 0 2 -7 1 -15 -2 -18z
m-1100 -80 c-7 -62 -30 -123 -45 -123 -17 0 -13 52 9 124 25 81 46 80 36 -1z
m3114 25 c0 -17 -25 -36 -36 -26 -2 3 -1 19 2 37 5 25 9 29 20 20 8 -6 14 -20
14 -31z m-50 28 c0 -3 -4 -8 -10 -11 -5 -3 -10 -1 -10 4 0 6 5 11 10 11 6 0
10 -2 10 -4z m-1880 -72 c0 -30 -4 -54 -10 -54 -6 0 -10 27 -10 61 0 37 4 58
10 54 6 -3 10 -31 10 -61z m-85 17 c-3 -12 -11 -21 -16 -21 -10 0 -12 21 -3
45 10 24 27 2 19 -24z m1622 -18 c-3 -10 -5 -2 -5 17 0 19 2 27 5 18 2 -10 2
-26 0 -35z m312 -27 c-9 -8 -10 -5 -5 14 3 14 7 34 7 45 1 11 4 5 6 -14 3 -19
-1 -39 -8 -45z m1561 70 c0 -11 -19 -15 -25 -6 -3 5 1 10 9 10 9 0 16 -2 16
-4z m-2594 -31 c-5 -18 -2 -25 9 -25 8 0 15 9 15 20 0 21 16 26 37 12 17 -11
68 -125 57 -129 -5 -2 -8 -42 -6 -90 3 -70 1 -88 -12 -95 -8 -5 -13 -15 -10
-23 4 -9 0 -15 -10 -15 -19 0 -30 39 -23 78 3 17 -1 34 -11 47 -15 17 -15 18
-1 7 14 -11 17 -9 22 15 5 21 1 32 -16 46 -12 9 -32 26 -44 36 -16 14 -25 15
-33 7 -15 -14 -8 64 8 107 14 34 26 36 18 2z m-249 -72 c-3 -10 -5 -2 -5 17 0
19 2 27 5 18 2 -10 2 -26 0 -35z m2773 26 c0 -5 -4 -9 -10 -9 -5 0 -10 7 -10
16 0 8 5 12 10 9 6 -3 10 -10 10 -16z m-3220 -34 c0 -19 -4 -37 -10 -40 -6 -4
-10 12 -10 40 0 28 4 44 10 40 6 -3 10 -21 10 -40z m1585 36 c3 -5 1 -30 -5
-54 -14 -66 -14 -177 2 -177 4 0 8 -7 8 -15 0 -8 -4 -15 -10 -15 -12 0 -13
-37 -1 -44 5 -4 0 -24 -11 -47 -22 -46 -58 -180 -58 -216 0 -12 -5 -23 -10
-23 -13 0 -3 90 17 145 8 22 21 60 30 83 12 35 13 52 5 80 -6 21 -15 73 -20
117 -5 44 -14 95 -20 113 -11 32 -10 34 21 47 39 17 44 18 52 6z m-1795 -11
c0 -5 -5 -10 -11 -10 -5 0 -7 5 -4 10 3 6 8 10 11 10 2 0 4 -4 4 -10z m837
-12 c-3 -8 -6 -5 -6 6 -1 11 2 17 5 13 3 -3 4 -12 1 -19z m1843 -9 c0 -5 -4
-9 -10 -9 -5 0 -10 7 -10 16 0 8 5 12 10 9 6 -3 10 -10 10 -16z m450 -31 l0
-53 -20 25 c-23 29 -25 51 -8 68 22 22 28 13 28 -40z m-1243 -15 c-3 -10 -5
-2 -5 17 0 19 2 27 5 18 2 -10 2 -26 0 -35z m773 13 c0 -5 -6 -4 -12 2 -10 8
-13 1 -14 -27 -3 -58 -39 -154 -84 -221 -9 -14 -32 -48 -51 -77 -38 -59 -53
-65 -17 -6 57 91 107 242 108 320 0 27 4 32 28 35 26 3 42 -7 42 -26z m770 24
c0 -5 -4 -10 -10 -10 -5 0 -10 5 -10 10 0 6 5 10 10 10 6 0 10 -4 10 -10z
m-3960 -21 c0 -13 -67 -11 -76 3 -4 6 -3 8 4 5 5 -4 21 -3 34 2 24 9 38 6 38
-10z m-90 1 c0 -5 -12 -10 -26 -10 -14 0 -23 4 -19 10 3 6 15 10 26 10 10 0
19 -4 19 -10z m2773 -15 c-3 -9 -8 -14 -10 -11 -3 3 -2 9 2 15 9 16 15 13 8
-4z m666 -59 c-5 -6 -9 7 -8 35 l1 44 8 -35 c5 -20 5 -39 -1 -44z m32 17 c-9
-16 -10 -14 -11 12 0 21 3 26 11 18 8 -8 8 -16 0 -30z m-841 -9 c0 -14 -4 -23
-10 -19 -6 4 -10 -6 -10 -23 0 -16 -7 -35 -15 -42 -8 -7 -15 -8 -15 -3 0 13
41 113 46 113 2 0 4 -12 4 -26z m-1823 -6 c-3 -8 -6 -5 -6 6 -1 11 2 17 5 13
3 -3 4 -12 1 -19z m715 -38 c-5 -31 -13 -46 -25 -48 -23 -5 -24 54 -1 87 23
32 35 14 26 -39z m938 50 c0 -5 -6 -13 -13 -17 -7 -4 -18 -19 -24 -33 -9 -19
-12 -21 -12 -7 -1 10 6 29 15 42 16 25 34 33 34 15z m1056 -33 c-4 -20 -1 -40
8 -52 20 -30 13 -61 -22 -101 -18 -20 -32 -41 -33 -47 -2 -35 -18 37 -18 84
-1 45 5 64 29 102 35 55 45 59 36 14z m571 -88 l-14 -34 -8 34 c-6 28 -4 37
11 48 26 19 30 -2 11 -48z m-87 16 c0 -41 -27 -130 -43 -143 -10 -9 -12 2 -5
56 4 37 7 79 7 94 1 20 6 26 21 25 15 -1 20 -8 20 -32z m250 7 c0 -10 -6 -27
-14 -38 -13 -17 -15 -17 -21 -2 -7 18 10 58 25 58 6 0 10 -8 10 -18z m-2243
-24 c-3 -7 -5 -2 -5 12 0 14 2 19 5 13 2 -7 2 -19 0 -25z m2175 -7 c1 -17 5
-28 9 -25 17 10 20 -19 8 -67 -11 -43 -11 -52 1 -61 12 -8 12 -9 -2 -4 -10 3
-18 0 -18 -6 0 -9 -3 -9 -12 0 -9 9 -9 15 0 24 7 7 12 26 12 42 l-1 31 -20
-38 c-11 -22 -22 -37 -23 -35 -2 1 -1 38 3 81 4 51 12 81 21 87 19 12 21 8 22
-29z m-1592 17 c0 -2 -10 -35 -23 -73 -17 -55 -26 -70 -40 -67 -20 4 -22 18
-3 25 7 3 22 31 31 61 10 31 22 56 26 56 5 0 9 -1 9 -2z m-1980 -34 c0 -8 -4
-12 -10 -9 -5 3 -10 10 -10 16 0 5 5 9 10 9 6 0 10 -7 10 -16z m1372 -36 c-9
-9 -12 -4 -11 23 0 32 1 33 11 11 8 -17 8 -26 0 -34z m105 30 c-3 -8 -6 -5 -6
6 -1 11 2 17 5 13 3 -3 4 -12 1 -19z m-327 -24 c0 -22 -2 -25 -15 -14 -8 7
-15 19 -15 26 0 8 7 14 15 14 10 0 15 -10 15 -26z m-90 -4 c0 -5 -4 -10 -10
-10 -5 0 -10 5 -10 10 0 6 5 10 10 10 6 0 10 -4 10 -10z m-746 -166 c-15 -27
-15 -35 -5 -48 11 -13 10 -18 -4 -32 -9 -9 -14 -25 -12 -36 6 -23 -11 -88 -23
-88 -5 0 -11 -8 -14 -17 -7 -26 4 54 14 107 6 25 17 81 26 125 20 97 28 113
32 61 2 -24 -3 -52 -14 -72z m2556 61 c0 -19 -4 -35 -10 -35 -11 0 -14 53 -3
63 11 12 13 8 13 -28z m512 13 c-7 -7 -12 -8 -12 -2 0 14 12 26 19 19 2 -3 -1
-11 -7 -17z m-322 -23 c0 -9 -8 -19 -17 -22 -10 -4 -21 -11 -25 -17 -4 -6 -10
-3 -14 8 -5 13 -1 23 11 32 25 18 45 18 45 -1z m-3040 1 c0 -3 -4 -8 -10 -11
-5 -3 -10 -1 -10 4 0 6 5 11 10 11 6 0 10 -2 10 -4z m1300 -61 c-20 -40 -28
-35 -11 7 5 13 13 32 17 43 5 15 8 16 11 5 2 -8 -6 -33 -17 -55z m620 -1 c0
-8 -4 -14 -9 -14 -6 0 -9 9 -8 19 1 22 17 18 17 -5z m-33 -6 c-3 -8 -6 -5 -6
6 -1 11 2 17 5 13 3 -3 4 -12 1 -19z m1723 13 c0 -6 -4 -13 -10 -16 -5 -3 -10
1 -10 9 0 9 5 16 10 16 6 0 10 -4 10 -9z m-176 -17 c11 -28 6 -39 -9 -20 -8
11 -15 23 -15 28 0 14 18 9 24 -8z m-1070 -13 c3 -5 -1 -11 -9 -15 -9 -3 -15
0 -15 9 0 16 16 20 24 6z m486 -11 c-6 -11 -13 -20 -15 -20 -3 0 -5 9 -5 20 0
11 7 20 15 20 13 0 14 -4 5 -20z m-1560 -48 c0 -24 -1 -25 -20 -7 -21 19 -20
32 5 32 9 0 15 -9 15 -25z m-1300 -33 c0 -26 -3 -31 -20 -26 -20 5 -22 2 -24
-69 -1 -11 -7 -28 -14 -36 -16 -20 -25 -127 -12 -148 10 -16 15 -8 23 40 3 14
4 -8 2 -47 -1 -40 2 -73 6 -73 4 0 11 -9 14 -21 5 -14 13 -19 25 -16 13 3 20
-2 24 -19 4 -14 18 -30 32 -36 14 -6 20 -14 14 -18 -6 -3 -11 -28 -12 -54 -2
-40 -6 -50 -26 -57 -27 -10 -46 -3 -39 15 9 22 -7 34 -39 29 -22 -4 -33 -12
-42 -35 -6 -16 -15 -27 -21 -24 -6 4 -8 12 -5 19 5 15 -113 50 -122 36 -3 -5
-17 -9 -31 -9 -14 0 -31 -8 -38 -17 -11 -15 -12 -6 -9 52 7 100 14 136 24 130
5 -3 25 -3 44 0 28 6 35 13 45 46 11 35 31 54 31 29 0 -5 7 -10 15 -10 14 0
13 4 -1 38 -9 22 -17 75 -19 134 -3 88 -1 98 15 103 11 3 17 12 14 19 -6 16
43 43 55 30 5 -5 11 -18 13 -29 3 -17 7 -15 28 17 31 46 50 49 50 7z m2044 16
c3 -8 1 -15 -4 -15 -6 0 -10 7 -10 15 0 8 2 15 4 15 2 0 6 -7 10 -15z m1036
-32 c0 -16 -4 -22 -12 -17 -7 4 -8 3 -4 -5 4 -7 5 -20 1 -29 -6 -12 -11 -3
-21 33 -10 37 -10 51 -1 57 17 10 37 -11 37 -39z m-1140 -22 c0 -17 -28 -43
-38 -37 -13 8 -16 68 -5 80 7 7 43 -29 43 -43z m-863 -48 c-2 -16 -4 -5 -4 22
0 28 2 40 4 28 2 -13 2 -35 0 -50z m1473 17 c0 -4 -16 -10 -35 -12 -35 -4 -50
8 -17 14 34 7 52 7 52 -2z m1147 -27 c-3 -10 -5 -4 -5 12 0 17 2 24 5 18 2 -7
2 -21 0 -30z m-361 -130 c-6 -15 -8 -15 -16 -3 -12 18 -13 123 -2 134 10 11
26 -108 18 -131z m-3075 57 c-8 -43 -9 -44 -10 -10 -1 39 11 94 16 70 2 -8 -1
-35 -6 -60z m816 28 c-3 -8 -6 -5 -6 6 -1 11 2 17 5 13 3 -3 4 -12 1 -19z
m920 -35 c-3 -10 -5 -4 -5 12 0 17 2 24 5 18 2 -7 2 -21 0 -30z m-1438 -5 c0
-27 -2 -29 -8 -13 -5 11 -6 26 -4 33 8 21 13 13 12 -20z m-141 5 c2 -7 -3 -13
-12 -13 -9 0 -16 -8 -17 -17 0 -13 -3 -12 -10 5 -5 13 -6 28 -3 33 8 13 36 7
42 -8z m212 12 c0 -2 -5 -28 -12 -57 l-12 -53 -6 40 c-6 41 3 75 20 75 6 0 10
-2 10 -5z m3042 -80 c-6 -27 -18 -90 -28 -140 -9 -49 -21 -94 -26 -100 -15
-17 -11 16 27 210 3 17 11 50 18 75 15 60 23 23 9 -45z m-3552 49 c0 -8 -4
-12 -10 -9 -5 3 -10 10 -10 16 0 5 5 9 10 9 6 0 10 -7 10 -16z m1919 -56 c10
-24 28 -90 40 -148 13 -58 27 -115 32 -128 5 -13 9 -33 9 -45 0 -21 -1 -21
-14 4 -16 32 -26 68 -36 139 -11 75 -50 203 -64 212 -8 6 -7 8 2 8 7 0 21 -19
31 -42z m1419 -5 c-2 -14 -8 -28 -14 -30 -17 -6 -26 27 -13 43 18 22 31 16 27
-13z m-138 -22 c10 -2 7 -6 -8 -11 -13 -6 -22 -15 -20 -22 4 -20 -11 -68 -22
-68 -15 0 -30 36 -30 73 0 37 3 38 80 28z m-3590 -33 c0 -3 3 -15 6 -25 3 -11
-4 -7 -20 12 -31 36 -33 50 -6 33 11 -7 20 -16 20 -20z m2391 20 c0 -10 2 -10
6 0 7 18 23 15 23 -5 0 -15 1 -15 19 1 21 19 51 12 50 -13 0 -10 -2 -11 -6 -3
-8 21 -35 15 -28 -7 5 -18 3 -18 -37 -6 -25 7 -44 19 -46 29 -2 9 1 16 7 16 6
0 11 -6 12 -12z m-764 -50 c-3 -7 -5 -2 -5 12 0 14 2 19 5 13 2 -7 2 -19 0
-25z m-1757 -56 c0 -8 -1 -13 -3 -11 -1 2 -9 12 -16 22 -12 15 -12 17 3 11 9
-3 16 -13 16 -22z m1193 -23 c7 0 3 -4 -8 -9 -29 -13 -35 -12 -35 6 0 11 5 14
16 10 9 -3 21 -6 27 -7z m67 2 c0 -6 -5 -13 -10 -16 -15 -9 -43 3 -35 15 8 13
45 13 45 1z m738 -61 c-9 -14 -19 -18 -38 -13 -14 3 -27 8 -30 10 -9 8 25 23
53 23 25 0 26 -2 15 -20z m-104 -6 c3 -9 -1 -14 -12 -15 -9 0 -25 -2 -34 -4
-22 -4 -35 14 -18 25 20 12 58 9 64 -6z m-724 -24 c0 -5 -5 -10 -11 -10 -5 0
-7 5 -4 10 3 6 8 10 11 10 2 0 4 -4 4 -10z m98 -14 c6 -29 -15 -43 -35 -24
-14 14 -14 20 -3 33 16 19 34 15 38 -9z m737 -5 c3 -5 1 -12 -5 -16 -5 -3 -10
1 -10 9 0 18 6 21 15 7z m-1455 -73 c0 -18 -4 -39 -9 -47 -8 -13 -12 -13 -27
0 -15 12 -16 12 -9 0 5 -10 4 -12 -3 -7 -13 8 -16 68 -5 79 3 4 17 7 30 7 19
0 23 -5 23 -32z m-469 -42 c-9 -47 -17 -64 -26 -55 -4 5 7 58 21 98 10 30 14
2 5 -43z m-81 30 c0 -3 -4 -8 -10 -11 -5 -3 -10 -1 -10 4 0 6 5 11 10 11 6 0
10 -2 10 -4z m3357 -18 c-3 -8 -6 -5 -6 6 -1 11 2 17 5 13 3 -3 4 -12 1 -19z
m43 13 c0 -6 -4 -13 -10 -16 -5 -3 -10 1 -10 9 0 9 5 16 10 16 6 0 10 -4 10
-9z m-203 -44 c-9 -19 -21 -45 -26 -58 -7 -16 -10 -18 -10 -7 -1 22 38 112 46
105 3 -4 -2 -22 -10 -40z m120 1 c-3 -8 -6 -5 -6 6 -1 11 2 17 5 13 3 -3 4
-12 1 -19z m-3417 -49 c-14 -4 -34 -7 -45 -8 -19 0 -19 0 -2 13 9 7 29 11 45
8 l27 -6 -25 -7z"/>
<path d="M3151 5234 c0 -11 3 -14 6 -6 3 7 2 16 -1 19 -3 4 -6 -2 -5 -13z"/>
<path d="M3090 5025 c0 -19 5 -35 10 -35 6 0 10 16 10 35 0 19 -4 35 -10 35
-5 0 -10 -16 -10 -35z"/>
<path d="M3091 4844 c0 -11 3 -14 6 -6 3 7 2 16 -1 19 -3 4 -6 -2 -5 -13z"/>
<path d="M3101 4634 c0 -11 3 -14 6 -6 3 7 2 16 -1 19 -3 4 -6 -2 -5 -13z"/>
<path d="M2961 1684 c0 -11 3 -14 6 -6 3 7 2 16 -1 19 -3 4 -6 -2 -5 -13z"/>
<path d="M2922 1195 c0 -16 2 -22 5 -12 2 9 2 23 0 30 -3 6 -5 -1 -5 -18z"/>
<path d="M2344 2516 c-3 -7 -4 -38 -2 -67 l3 -54 5 68 c5 67 4 79 -6 53z"/>
<path d="M4570 2351 c0 -25 6 -27 13 -6 4 8 2 17 -3 20 -6 4 -10 -3 -10 -14z"/>
<path d="M5642 1100 c0 -14 2 -19 5 -12 2 6 2 18 0 25 -3 6 -5 1 -5 -13z"/>
<path d="M2300 260 c0 -5 5 -10 10 -10 6 0 10 5 10 10 0 6 -4 10 -10 10 -5 0
-10 -4 -10 -10z"/>
<path d="M2321 194 c0 -11 3 -14 6 -6 3 7 2 16 -1 19 -3 4 -6 -2 -5 -13z"/>
<path d="M2031 4044 c0 -11 3 -14 6 -6 3 7 2 16 -1 19 -3 4 -6 -2 -5 -13z"/>
<path d="M2047 4021 c-4 -17 -3 -21 5 -13 5 5 8 16 6 23 -3 8 -7 3 -11 -10z"/>
<path d="M2065 4000 c-3 -5 -1 -10 4 -10 6 0 11 5 11 10 0 6 -2 10 -4 10 -3 0
-8 -4 -11 -10z"/>
<path d="M2080 3966 c0 -9 8 -14 20 -13 24 2 21 21 -3 25 -10 2 -17 -3 -17
-12z"/>
<path d="M4286 3655 c-3 -8 -1 -15 4 -15 6 0 10 7 10 15 0 8 -2 15 -4 15 -2 0
-6 -7 -10 -15z"/>
<path d="M2614 3547 c-1 -61 2 -94 6 -82 11 25 13 185 3 185 -5 0 -9 -46 -9
-103z"/>
<path d="M4325 3600 c-3 -6 1 -7 9 -4 18 7 21 14 7 14 -6 0 -13 -4 -16 -10z"/>
<path d="M2570 3581 c0 -6 5 -13 10 -16 6 -3 10 1 10 9 0 9 -4 16 -10 16 -5 0
-10 -4 -10 -9z"/>
<path d="M285 3377 c-41 -13 -55 -26 -55 -48 0 -11 -4 -19 -8 -19 -5 0 -10
-22 -11 -50 -1 -41 2 -52 22 -64 25 -17 63 -12 71 10 3 8 11 14 18 14 29 1 58
38 58 74 0 60 -45 100 -95 83z"/>
<path d="M220 2943 c0 -7 -4 -13 -10 -13 -17 0 -59 -42 -54 -54 11 -28 94 -3
94 28 0 17 -29 54 -30 39z"/>
<path d="M102 2750 c0 -19 2 -27 5 -17 2 9 2 25 0 35 -3 9 -5 1 -5 -18z"/>
<path d="M56 2754 c-4 -9 -4 -19 -1 -22 2 -3 7 3 11 12 4 9 4 19 1 22 -2 3 -7
-3 -11 -12z"/>
<path d="M1920 2610 c-9 -6 -7 -11 9 -19 11 -7 21 -18 21 -26 0 -18 16 -20 26
-3 5 7 3 8 -6 3 -10 -6 -11 -2 -7 17 5 20 3 27 -12 31 -10 2 -24 1 -31 -3z"/>
<path d="M1670 2449 c0 -29 2 -50 4 -48 9 9 13 90 5 95 -5 3 -9 -18 -9 -47z"/>
<path d="M1638 2434 c-2 -19 0 -37 4 -40 4 -3 8 13 8 35 0 51 -6 53 -12 5z"/>
<path d="M1410 2330 c0 -35 3 -61 6 -57 7 7 7 107 0 115 -3 3 -6 -23 -6 -58z"/>
<path d="M2135 2280 c-3 -5 -1 -18 4 -27 9 -16 10 -14 11 10 0 28 -5 34 -15
17z"/>
<path d="M1 2074 c0 -11 3 -14 6 -6 3 7 2 16 -1 19 -3 4 -6 -2 -5 -13z"/>
<path d="M5456 155 c10 -16 19 -31 20 -33 1 -2 5 1 8 6 3 5 -6 20 -21 33 l-26
24 19 -30z"/>
<path d="M5487 113 c-3 -5 -2 -15 4 -23 5 -8 9 -25 9 -36 0 -12 7 -25 16 -28
8 -3 12 -10 9 -16 -3 -5 1 -10 9 -10 17 0 22 25 6 35 -5 3 -6 13 -3 21 4 10
-2 17 -17 21 -13 4 -17 8 -10 13 8 5 7 10 -4 19 -8 7 -17 8 -19 4z"/>
</g>
</svg>
